<svg width="500px" height="500px" xmlns="http://www.w3.org/2000/svg">

  <radialGradient id="cloud-colors" fx="50%" fy="50%" r="100%" spreadMethod="pad" cx="50%" cy="50%">
    <stop offset="0%" stop-opacity="0" stop-color="white" />
    <stop offset="100%" stop-opacity="1" stop-color="gray" />
  </radialGradient>
  <path d="m 80 80 a 40 20 0 0 1  80 0
  a 40 20 0 0 1  80 0
  a 40 20 0 0 1  80 0
  a 40 20 0 0 1  80 0
  a 20 40 0 0 1  30 80
  a 20 40 0 0 1  30 80
  a 20 40 0 0 1  -30 80
  a 40 20 0 0 1  -80 0
  a 40 20 0 0 1  -80 0
  a 40 20 0 0 1  -80 0
  a 40 30 0 0 1  -80 0
  a 30 40 0 0 1  -30 -80
  a 20 40 0 0 1  -30 -80
  a 20 40 0 0 1  30 -80
  " fill="url(#cloud-colors)" stroke="transparent" stroke-width="3px" />

  <text x="100" y="220" style="font: 50px Comic Sans MS">Hello World !</text>
</svg>